<?xml version="1.0" encoding="UTF-8" standalone="no"?>
<!DOCTYPE svg PUBLIC "-//W3C//DTD SVG 1.1//EN"
 "http://www.w3.org/Graphics/SVG/1.1/DTD/svg11.dtd">
<!-- Generated by graphviz version 15.0.0 (20260523.1842)
 -->
<!-- Title: priority_email_evolution_flow Pages: 1 -->
<svg width="584pt" height="1959pt"
 viewBox="0.00 0.00 584.00 1959.00" xmlns="http://www.w3.org/2000/svg" xmlns:xlink="http://www.w3.org/1999/xlink">
<g id="graph0" class="graph" transform="scale(1 1) rotate(0) translate(25.2 1934)">
<title>priority_email_evolution_flow</title>
<polygon fill="#ffffff" stroke="none" points="-25.2,25.2 -25.2,-1934 558.32,-1934 558.32,25.2 -25.2,25.2"/>
<text xml:space="preserve" text-anchor="middle" x="266.56" y="-1878.2" font-family="Helvetica,sans-Serif" font-size="28.00">Priority Email Evolution Flow</text>
<!-- requirements -->
<g id="node1" class="node">
<title>requirements</title>
<path fill="#e0f2fe" stroke="#0284c7" d="M375.4,-1872.3C375.4,-1872.3 151,-1872.3 151,-1872.3 145,-1872.3 139,-1866.3 139,-1860.3 139,-1860.3 139,-1790.28 139,-1790.28 139,-1784.28 145,-1778.28 151,-1778.28 151,-1778.28 375.4,-1778.28 375.4,-1778.28 381.4,-1778.28 387.4,-1784.28 387.4,-1790.28 387.4,-1790.28 387.4,-1860.3 387.4,-1860.3 387.4,-1866.3 381.4,-1872.3 375.4,-1872.3"/>
<text xml:space="preserve" text-anchor="middle" x="263.2" y="-1851.34" font-family="Helvetica,sans-Serif" font-size="16.00" fill="#0f172a">Requirements</text>
<text xml:space="preserve" text-anchor="middle" x="263.2" y="-1834.84" font-family="Helvetica,sans-Serif" font-size="16.00" fill="#0f172a">Gmail, Yahoo, iCloud</text>
<text xml:space="preserve" text-anchor="middle" x="263.2" y="-1818.34" font-family="Helvetica,sans-Serif" font-size="16.00" fill="#0f172a">Sender filters</text>
<text xml:space="preserve" text-anchor="middle" x="263.2" y="-1801.84" font-family="Helvetica,sans-Serif" font-size="16.00" fill="#0f172a">Slack summaries</text>
<text xml:space="preserve" text-anchor="middle" x="263.2" y="-1785.34" font-family="Helvetica,sans-Serif" font-size="16.00" fill="#0f172a">Phone push target</text>
</g>
<!-- config -->
<g id="node2" class="node">
<title>config</title>
<path fill="#dcfce7" stroke="#16a34a" d="M375.4,-1745.28C375.4,-1745.28 151,-1745.28 151,-1745.28 145,-1745.28 139,-1739.28 139,-1733.28 139,-1733.28 139,-1663.26 139,-1663.26 139,-1657.26 145,-1651.26 151,-1651.26 151,-1651.26 375.4,-1651.26 375.4,-1651.26 381.4,-1651.26 387.4,-1657.26 387.4,-1663.26 387.4,-1663.26 387.4,-1733.28 387.4,-1733.28 387.4,-1739.28 381.4,-1745.28 375.4,-1745.28"/>
<text xml:space="preserve" text-anchor="middle" x="263.2" y="-1724.32" font-family="Helvetica,sans-Serif" font-size="16.00" fill="#0f172a">Simple config</text>
<text xml:space="preserve" text-anchor="middle" x="263.2" y="-1707.82" font-family="Helvetica,sans-Serif" font-size="16.00" fill="#0f172a">Local .env secrets</text>
<text xml:space="preserve" text-anchor="middle" x="263.2" y="-1691.32" font-family="Helvetica,sans-Serif" font-size="16.00" fill="#0f172a">Filter templates only</text>
<text xml:space="preserve" text-anchor="middle" x="263.2" y="-1674.82" font-family="Helvetica,sans-Serif" font-size="16.00" fill="#0f172a">Local filter values ignored</text>
<text xml:space="preserve" text-anchor="middle" x="263.2" y="-1658.32" font-family="Helvetica,sans-Serif" font-size="16.00" fill="#0f172a">Newest&#45;first entries</text>
</g>
<!-- requirements&#45;&gt;config -->
<g id="edge1" class="edge">
<title>requirements&#45;&gt;config</title>
<path fill="none" stroke="#64748b" stroke-width="2" d="M263.2,-1778.09C263.2,-1771.07 263.2,-1763.76 263.2,-1756.53"/>
<polygon fill="#64748b" stroke="#64748b" stroke-width="2" points="266,-1756.72 263.2,-1748.72 260.4,-1756.72 266,-1756.72"/>
</g>
<!-- deployment -->
<g id="node3" class="node">
<title>deployment</title>
<path fill="#fef3c7" stroke="#d97706" d="M388.5,-1618.26C388.5,-1618.26 137.9,-1618.26 137.9,-1618.26 131.9,-1618.26 125.91,-1612.26 125.91,-1606.26 125.91,-1606.26 125.91,-1536.24 125.91,-1536.24 125.91,-1530.24 131.91,-1524.24 137.91,-1524.24 137.91,-1524.24 388.5,-1524.24 388.5,-1524.24 394.5,-1524.24 400.5,-1530.24 400.5,-1536.24 400.5,-1536.24 400.5,-1606.26 400.5,-1606.26 400.5,-1612.26 394.5,-1618.26 388.5,-1618.26"/>
<text xml:space="preserve" text-anchor="middle" x="263.2" y="-1597.3" font-family="Helvetica,sans-Serif" font-size="16.00" fill="#0f172a">AWS deployment plan</text>
<text xml:space="preserve" text-anchor="middle" x="263.2" y="-1580.8" font-family="Helvetica,sans-Serif" font-size="16.00" fill="#0f172a">example&#45;platform profile</text>
<text xml:space="preserve" text-anchor="middle" x="263.2" y="-1564.3" font-family="Helvetica,sans-Serif" font-size="16.00" fill="#0f172a">Dedicated priority&#45;email namespace</text>
<text xml:space="preserve" text-anchor="middle" x="263.2" y="-1547.8" font-family="Helvetica,sans-Serif" font-size="16.00" fill="#0f172a">PVC state volume</text>
<text xml:space="preserve" text-anchor="middle" x="263.2" y="-1531.3" font-family="Helvetica,sans-Serif" font-size="16.00" fill="#0f172a">ConfigMap filters</text>
</g>
<!-- config&#45;&gt;deployment -->
<g id="edge2" class="edge">
<title>config&#45;&gt;deployment</title>
<path fill="none" stroke="#64748b" stroke-width="2" d="M263.2,-1651.07C263.2,-1644.05 263.2,-1636.74 263.2,-1629.51"/>
<polygon fill="#64748b" stroke="#64748b" stroke-width="2" points="266,-1629.7 263.2,-1621.7 260.4,-1629.7 266,-1629.7"/>
</g>
<!-- push -->
<g id="node4" class="node">
<title>push</title>
<path fill="#ede9fe" stroke="#7c3aed" d="M236.4,-1482.99C236.4,-1482.99 12,-1482.99 12,-1482.99 6,-1482.99 0,-1476.99 0,-1470.99 0,-1470.99 0,-1417.47 0,-1417.47 0,-1411.47 6,-1405.47 12,-1405.47 12,-1405.47 236.4,-1405.47 236.4,-1405.47 242.4,-1405.47 248.4,-1411.47 248.4,-1417.47 248.4,-1417.47 248.4,-1470.99 248.4,-1470.99 248.4,-1476.99 242.4,-1482.99 236.4,-1482.99"/>
<text xml:space="preserve" text-anchor="middle" x="124.2" y="-1462.03" font-family="Helvetica,sans-Serif" font-size="16.00" fill="#0f172a">Push provider choice</text>
<text xml:space="preserve" text-anchor="middle" x="124.2" y="-1445.53" font-family="Helvetica,sans-Serif" font-size="16.00" fill="#0f172a">AWS End User Messaging Push</text>
<text xml:space="preserve" text-anchor="middle" x="124.2" y="-1429.03" font-family="Helvetica,sans-Serif" font-size="16.00" fill="#0f172a">Low&#45;cost AWS&#45;native target</text>
<text xml:space="preserve" text-anchor="middle" x="124.2" y="-1412.53" font-family="Helvetica,sans-Serif" font-size="16.00" fill="#0f172a">MVP fallbacks documented</text>
</g>
<!-- deployment&#45;&gt;push -->
<g id="edge3" class="edge">
<title>deployment&#45;&gt;push</title>
<path fill="none" stroke="#64748b" stroke-width="2" d="M211.84,-1524.05C199.77,-1513.2 186.92,-1501.65 174.89,-1490.82"/>
<polygon fill="#64748b" stroke="#64748b" stroke-width="2" points="176.78,-1488.75 168.96,-1485.49 173.03,-1492.92 176.78,-1488.75"/>
</g>
<!-- gmail -->
<g id="node5" class="node">
<title>gmail</title>
<path fill="#ccfbf1" stroke="#0d9488" d="M514.4,-1491.24C514.4,-1491.24 290,-1491.24 290,-1491.24 284,-1491.24 278,-1485.24 278,-1479.24 278,-1479.24 278,-1409.22 278,-1409.22 278,-1403.22 284,-1397.22 290,-1397.22 290,-1397.22 514.4,-1397.22 514.4,-1397.22 520.4,-1397.22 526.4,-1403.22 526.4,-1409.22 526.4,-1409.22 526.4,-1479.24 526.4,-1479.24 526.4,-1485.24 520.4,-1491.24 514.4,-1491.24"/>
<text xml:space="preserve" text-anchor="middle" x="402.2" y="-1470.28" font-family="Helvetica,sans-Serif" font-size="16.00" fill="#0f172a">Gmail validated</text>
<text xml:space="preserve" text-anchor="middle" x="402.2" y="-1453.78" font-family="Helvetica,sans-Serif" font-size="16.00" fill="#0f172a">Google Cloud OAuth</text>
<text xml:space="preserve" text-anchor="middle" x="402.2" y="-1437.28" font-family="Helvetica,sans-Serif" font-size="16.00" fill="#0f172a">Refresh token in .env</text>
<text xml:space="preserve" text-anchor="middle" x="402.2" y="-1420.78" font-family="Helvetica,sans-Serif" font-size="16.00" fill="#0f172a">Metadata read succeeded</text>
<text xml:space="preserve" text-anchor="middle" x="402.2" y="-1404.28" font-family="Helvetica,sans-Serif" font-size="16.00" fill="#0f172a">Poller checkpointed</text>
</g>
<!-- deployment&#45;&gt;gmail -->
<g id="edge4" class="edge">
<title>deployment&#45;&gt;gmail</title>
<path fill="none" stroke="#64748b" stroke-width="2" d="M314.56,-1524.05C323.66,-1515.87 333.19,-1507.3 342.49,-1498.93"/>
<polygon fill="#64748b" stroke="#64748b" stroke-width="2" points="344.26,-1501.11 348.33,-1493.68 340.51,-1496.95 344.26,-1501.11"/>
</g>
<!-- slack -->
<g id="node6" class="node">
<title>slack</title>
<path fill="#fce7f3" stroke="#db2777" d="M514.4,-1364.22C514.4,-1364.22 290,-1364.22 290,-1364.22 284,-1364.22 278,-1358.22 278,-1352.22 278,-1352.22 278,-1282.2 278,-1282.2 278,-1276.2 284,-1270.2 290,-1270.2 290,-1270.2 514.4,-1270.2 514.4,-1270.2 520.4,-1270.2 526.4,-1276.2 526.4,-1282.2 526.4,-1282.2 526.4,-1352.22 526.4,-1352.22 526.4,-1358.22 520.4,-1364.22 514.4,-1364.22"/>
<text xml:space="preserve" text-anchor="middle" x="402.2" y="-1343.26" font-family="Helvetica,sans-Serif" font-size="16.00" fill="#0f172a">Slack validated</text>
<text xml:space="preserve" text-anchor="middle" x="402.2" y="-1326.76" font-family="Helvetica,sans-Serif" font-size="16.00" fill="#0f172a">Priority Email app</text>
<text xml:space="preserve" text-anchor="middle" x="402.2" y="-1310.26" font-family="Helvetica,sans-Serif" font-size="16.00" fill="#0f172a">chat:write scope</text>
<text xml:space="preserve" text-anchor="middle" x="402.2" y="-1293.76" font-family="Helvetica,sans-Serif" font-size="16.00" fill="#0f172a">Bot invited to channel</text>
<text xml:space="preserve" text-anchor="middle" x="402.2" y="-1277.26" font-family="Helvetica,sans-Serif" font-size="16.00" fill="#0f172a">Test post succeeded</text>
</g>
<!-- gmail&#45;&gt;slack -->
<g id="edge5" class="edge">
<title>gmail&#45;&gt;slack</title>
<path fill="none" stroke="#64748b" stroke-width="2" d="M402.2,-1397.03C402.2,-1390.01 402.2,-1382.7 402.2,-1375.47"/>
<polygon fill="#64748b" stroke="#64748b" stroke-width="2" points="405,-1375.66 402.2,-1367.66 399.4,-1375.66 405,-1375.66"/>
</g>
<!-- policy -->
<g id="node7" class="node">
<title>policy</title>
<path fill="#e2e8f0" stroke="#475569" d="M514.4,-1237.2C514.4,-1237.2 290,-1237.2 290,-1237.2 284,-1237.2 278,-1231.2 278,-1225.2 278,-1225.2 278,-1155.18 278,-1155.18 278,-1149.18 284,-1143.18 290,-1143.18 290,-1143.18 514.4,-1143.18 514.4,-1143.18 520.4,-1143.18 526.4,-1149.18 526.4,-1155.18 526.4,-1155.18 526.4,-1225.2 526.4,-1225.2 526.4,-1231.2 520.4,-1237.2 514.4,-1237.2"/>
<text xml:space="preserve" text-anchor="middle" x="402.2" y="-1216.24" font-family="Helvetica,sans-Serif" font-size="16.00" fill="#0f172a">Repo memory</text>
<text xml:space="preserve" text-anchor="middle" x="402.2" y="-1199.74" font-family="Helvetica,sans-Serif" font-size="16.00" fill="#0f172a">Global EVOLUTION policy</text>
<text xml:space="preserve" text-anchor="middle" x="402.2" y="-1183.24" font-family="Helvetica,sans-Serif" font-size="16.00" fill="#0f172a">Repo AGENTS guidance</text>
<text xml:space="preserve" text-anchor="middle" x="402.2" y="-1166.74" font-family="Helvetica,sans-Serif" font-size="16.00" fill="#0f172a">Category history</text>
<text xml:space="preserve" text-anchor="middle" x="402.2" y="-1150.24" font-family="Helvetica,sans-Serif" font-size="16.00" fill="#0f172a">Generated flow diagrams</text>
</g>
<!-- slack&#45;&gt;policy -->
<g id="edge6" class="edge">
<title>slack&#45;&gt;policy</title>
<path fill="none" stroke="#64748b" stroke-width="2" d="M402.2,-1270.01C402.2,-1262.99 402.2,-1255.68 402.2,-1248.45"/>
<polygon fill="#64748b" stroke="#64748b" stroke-width="2" points="405,-1248.64 402.2,-1240.64 399.4,-1248.64 405,-1248.64"/>
</g>
<!-- quality -->
<g id="node8" class="node">
<title>quality</title>
<path fill="#f0f9ff" stroke="#0369a1" d="M514.4,-1110.18C514.4,-1110.18 290,-1110.18 290,-1110.18 284,-1110.18 278,-1104.18 278,-1098.18 278,-1098.18 278,-1028.16 278,-1028.16 278,-1022.16 284,-1016.16 290,-1016.16 290,-1016.16 514.4,-1016.16 514.4,-1016.16 520.4,-1016.16 526.4,-1022.16 526.4,-1028.16 526.4,-1028.16 526.4,-1098.18 526.4,-1098.18 526.4,-1104.18 520.4,-1110.18 514.4,-1110.18"/>
<text xml:space="preserve" text-anchor="middle" x="402.2" y="-1089.22" font-family="Helvetica,sans-Serif" font-size="16.00" fill="#0f172a">Team skills applied</text>
<text xml:space="preserve" text-anchor="middle" x="402.2" y="-1072.72" font-family="Helvetica,sans-Serif" font-size="16.00" fill="#0f172a">Spec&#45;driven work</text>
<text xml:space="preserve" text-anchor="middle" x="402.2" y="-1056.22" font-family="Helvetica,sans-Serif" font-size="16.00" fill="#0f172a">TDD and unit tests</text>
<text xml:space="preserve" text-anchor="middle" x="402.2" y="-1039.72" font-family="Helvetica,sans-Serif" font-size="16.00" fill="#0f172a">Security hardening</text>
<text xml:space="preserve" text-anchor="middle" x="402.2" y="-1023.22" font-family="Helvetica,sans-Serif" font-size="16.00" fill="#0f172a">Notification deploy skill</text>
</g>
<!-- policy&#45;&gt;quality -->
<g id="edge7" class="edge">
<title>policy&#45;&gt;quality</title>
<path fill="none" stroke="#64748b" stroke-width="2" d="M402.2,-1142.99C402.2,-1135.97 402.2,-1128.66 402.2,-1121.43"/>
<polygon fill="#64748b" stroke="#64748b" stroke-width="2" points="405,-1121.62 402.2,-1113.62 399.4,-1121.62 405,-1121.62"/>
</g>
<!-- github -->
<g id="node9" class="node">
<title>github</title>
<path fill="#f8fafc" stroke="#0f172a" d="M514.4,-983.16C514.4,-983.16 290,-983.16 290,-983.16 284,-983.16 278,-977.16 278,-971.16 278,-971.16 278,-901.14 278,-901.14 278,-895.14 284,-889.14 290,-889.14 290,-889.14 514.4,-889.14 514.4,-889.14 520.4,-889.14 526.4,-895.14 526.4,-901.14 526.4,-901.14 526.4,-971.16 526.4,-971.16 526.4,-977.16 520.4,-983.16 514.4,-983.16"/>
<text xml:space="preserve" text-anchor="middle" x="402.2" y="-962.2" font-family="Helvetica,sans-Serif" font-size="16.00" fill="#0f172a">GitHub publication</text>
<text xml:space="preserve" text-anchor="middle" x="402.2" y="-945.7" font-family="Helvetica,sans-Serif" font-size="16.00" fill="#0f172a">README landing page</text>
<text xml:space="preserve" text-anchor="middle" x="402.2" y="-929.2" font-family="Helvetica,sans-Serif" font-size="16.00" fill="#0f172a">Safe staged set</text>
<text xml:space="preserve" text-anchor="middle" x="402.2" y="-912.7" font-family="Helvetica,sans-Serif" font-size="16.00" fill="#0f172a">Secrets ignored</text>
<text xml:space="preserve" text-anchor="middle" x="402.2" y="-896.2" font-family="Helvetica,sans-Serif" font-size="16.00" fill="#0f172a">Tests pass</text>
</g>
<!-- quality&#45;&gt;github -->
<g id="edge8" class="edge">
<title>quality&#45;&gt;github</title>
<path fill="none" stroke="#64748b" stroke-width="2" d="M402.2,-1015.97C402.2,-1008.95 402.2,-1001.64 402.2,-994.41"/>
<polygon fill="#64748b" stroke="#64748b" stroke-width="2" points="405,-994.6 402.2,-986.6 399.4,-994.6 405,-994.6"/>
</g>
<!-- aws_live -->
<g id="node10" class="node">
<title>aws_live</title>
<path fill="#ecfccb" stroke="#65a30d" d="M514.4,-856.14C514.4,-856.14 290,-856.14 290,-856.14 284,-856.14 278,-850.14 278,-844.14 278,-844.14 278,-774.12 278,-774.12 278,-768.12 284,-762.12 290,-762.12 290,-762.12 514.4,-762.12 514.4,-762.12 520.4,-762.12 526.4,-768.12 526.4,-774.12 526.4,-774.12 526.4,-844.14 526.4,-844.14 526.4,-850.14 520.4,-856.14 514.4,-856.14"/>
<text xml:space="preserve" text-anchor="middle" x="402.2" y="-835.18" font-family="Helvetica,sans-Serif" font-size="16.00" fill="#0f172a">AWS worker live</text>
<text xml:space="preserve" text-anchor="middle" x="402.2" y="-818.68" font-family="Helvetica,sans-Serif" font-size="16.00" fill="#0f172a">ECR image pushed</text>
<text xml:space="preserve" text-anchor="middle" x="402.2" y="-802.18" font-family="Helvetica,sans-Serif" font-size="16.00" fill="#0f172a">Secrets Manager runtime</text>
<text xml:space="preserve" text-anchor="middle" x="402.2" y="-785.68" font-family="Helvetica,sans-Serif" font-size="16.00" fill="#0f172a">ConfigMap filters</text>
<text xml:space="preserve" text-anchor="middle" x="402.2" y="-769.18" font-family="Helvetica,sans-Serif" font-size="16.00" fill="#0f172a">PVC&#45;backed state</text>
</g>
<!-- github&#45;&gt;aws_live -->
<g id="edge9" class="edge">
<title>github&#45;&gt;aws_live</title>
<path fill="none" stroke="#64748b" stroke-width="2" d="M402.2,-888.95C402.2,-881.93 402.2,-874.62 402.2,-867.39"/>
<polygon fill="#64748b" stroke="#64748b" stroke-width="2" points="405,-867.58 402.2,-859.58 399.4,-867.58 405,-867.58"/>
</g>
<!-- ci -->
<g id="node11" class="node">
<title>ci</title>
<path fill="#dbeafe" stroke="#2563eb" d="M514.4,-729.12C514.4,-729.12 290,-729.12 290,-729.12 284,-729.12 278,-723.12 278,-717.12 278,-717.12 278,-647.1 278,-647.1 278,-641.1 284,-635.1 290,-635.1 290,-635.1 514.4,-635.1 514.4,-635.1 520.4,-635.1 526.4,-641.1 526.4,-647.1 526.4,-647.1 526.4,-717.12 526.4,-717.12 526.4,-723.12 520.4,-729.12 514.4,-729.12"/>
<text xml:space="preserve" text-anchor="middle" x="402.2" y="-708.16" font-family="Helvetica,sans-Serif" font-size="16.00" fill="#0f172a">CI automation</text>
<text xml:space="preserve" text-anchor="middle" x="402.2" y="-691.66" font-family="Helvetica,sans-Serif" font-size="16.00" fill="#0f172a">GitHub Actions</text>
<text xml:space="preserve" text-anchor="middle" x="402.2" y="-675.16" font-family="Helvetica,sans-Serif" font-size="16.00" fill="#0f172a">Tests and syntax gates</text>
<text xml:space="preserve" text-anchor="middle" x="402.2" y="-658.66" font-family="Helvetica,sans-Serif" font-size="16.00" fill="#0f172a">Secret/path scan</text>
<text xml:space="preserve" text-anchor="middle" x="402.2" y="-642.16" font-family="Helvetica,sans-Serif" font-size="16.00" fill="#0f172a">Docker build check</text>
</g>
<!-- aws_live&#45;&gt;ci -->
<g id="edge10" class="edge">
<title>aws_live&#45;&gt;ci</title>
<path fill="none" stroke="#64748b" stroke-width="2" d="M402.2,-761.93C402.2,-754.91 402.2,-747.6 402.2,-740.37"/>
<polygon fill="#64748b" stroke="#64748b" stroke-width="2" points="405,-740.56 402.2,-732.56 399.4,-740.56 405,-740.56"/>
</g>
<!-- provider_errors -->
<g id="node12" class="node">
<title>provider_errors</title>
<path fill="#fae8ff" stroke="#a21caf" d="M521.12,-602.1C521.12,-602.1 283.28,-602.1 283.28,-602.1 277.28,-602.1 271.28,-596.1 271.28,-590.1 271.28,-590.1 271.28,-520.08 271.28,-520.08 271.28,-514.08 277.28,-508.08 283.28,-508.08 283.28,-508.08 521.12,-508.08 521.12,-508.08 527.12,-508.08 533.12,-514.08 533.12,-520.08 533.12,-520.08 533.12,-590.1 533.12,-590.1 533.12,-596.1 527.12,-602.1 521.12,-602.1"/>
<text xml:space="preserve" text-anchor="middle" x="402.2" y="-581.14" font-family="Helvetica,sans-Serif" font-size="16.00" fill="#0f172a">Provider resilience</text>
<text xml:space="preserve" text-anchor="middle" x="402.2" y="-564.64" font-family="Helvetica,sans-Serif" font-size="16.00" fill="#0f172a">Bounded transient retries</text>
<text xml:space="preserve" text-anchor="middle" x="402.2" y="-548.14" font-family="Helvetica,sans-Serif" font-size="16.00" fill="#0f172a">Slack diagnostics after exhaustion</text>
<text xml:space="preserve" text-anchor="middle" x="402.2" y="-531.64" font-family="Helvetica,sans-Serif" font-size="16.00" fill="#0f172a">Sanitized request details</text>
<text xml:space="preserve" text-anchor="middle" x="402.2" y="-515.14" font-family="Helvetica,sans-Serif" font-size="16.00" fill="#0f172a">Worker keeps polling</text>
</g>
<!-- ci&#45;&gt;provider_errors -->
<g id="edge11" class="edge">
<title>ci&#45;&gt;provider_errors</title>
<path fill="none" stroke="#64748b" stroke-width="2" d="M402.2,-634.91C402.2,-627.89 402.2,-620.58 402.2,-613.35"/>
<polygon fill="#64748b" stroke="#64748b" stroke-width="2" points="405,-613.54 402.2,-605.54 399.4,-613.54 405,-613.54"/>
</g>
<!-- delivery_flow -->
<g id="node13" class="node">
<title>delivery_flow</title>
<path fill="#ffedd5" stroke="#ea580c" d="M514.75,-475.08C514.75,-475.08 289.65,-475.08 289.65,-475.08 283.65,-475.08 277.65,-469.08 277.65,-463.08 277.65,-463.08 277.65,-393.06 277.65,-393.06 277.65,-387.06 283.65,-381.06 289.65,-381.06 289.65,-381.06 514.75,-381.06 514.75,-381.06 520.75,-381.06 526.75,-387.06 526.75,-393.06 526.75,-393.06 526.75,-463.08 526.75,-463.08 526.75,-469.08 520.75,-475.08 514.75,-475.08"/>
<text xml:space="preserve" text-anchor="middle" x="402.2" y="-454.12" font-family="Helvetica,sans-Serif" font-size="16.00" fill="#0f172a">Delivery flow</text>
<text xml:space="preserve" text-anchor="middle" x="402.2" y="-437.62" font-family="Helvetica,sans-Serif" font-size="16.00" fill="#0f172a">Push tracked changes to GitHub</text>
<text xml:space="preserve" text-anchor="middle" x="402.2" y="-421.12" font-family="Helvetica,sans-Serif" font-size="16.00" fill="#0f172a">CI/tests must pass</text>
<text xml:space="preserve" text-anchor="middle" x="402.2" y="-404.62" font-family="Helvetica,sans-Serif" font-size="16.00" fill="#0f172a">Deploy notification updates now</text>
<text xml:space="preserve" text-anchor="middle" x="402.2" y="-388.12" font-family="Helvetica,sans-Serif" font-size="16.00" fill="#0f172a">Verify live image and config</text>
</g>
<!-- provider_errors&#45;&gt;delivery_flow -->
<g id="edge12" class="edge">
<title>provider_errors&#45;&gt;delivery_flow</title>
<path fill="none" stroke="#64748b" stroke-width="2" d="M402.2,-507.89C402.2,-500.87 402.2,-493.56 402.2,-486.33"/>
<polygon fill="#64748b" stroke="#64748b" stroke-width="2" points="405,-486.52 402.2,-478.52 399.4,-486.52 405,-486.52"/>
</g>
<!-- public_ready -->
<g id="node14" class="node">
<title>public_ready</title>
<path fill="#f1f5f9" stroke="#475569" d="M514.4,-348.06C514.4,-348.06 290,-348.06 290,-348.06 284,-348.06 278,-342.06 278,-336.06 278,-336.06 278,-266.04 278,-266.04 278,-260.04 284,-254.04 290,-254.04 290,-254.04 514.4,-254.04 514.4,-254.04 520.4,-254.04 526.4,-260.04 526.4,-266.04 526.4,-266.04 526.4,-336.06 526.4,-336.06 526.4,-342.06 520.4,-348.06 514.4,-348.06"/>
<text xml:space="preserve" text-anchor="middle" x="402.2" y="-327.1" font-family="Helvetica,sans-Serif" font-size="16.00" fill="#0f172a">Public readiness</text>
<text xml:space="preserve" text-anchor="middle" x="402.2" y="-310.6" font-family="Helvetica,sans-Serif" font-size="16.00" fill="#0f172a">Redacted identifiers</text>
<text xml:space="preserve" text-anchor="middle" x="402.2" y="-294.1" font-family="Helvetica,sans-Serif" font-size="16.00" fill="#0f172a">Blank env example</text>
<text xml:space="preserve" text-anchor="middle" x="402.2" y="-277.6" font-family="Helvetica,sans-Serif" font-size="16.00" fill="#0f172a">Example image host</text>
<text xml:space="preserve" text-anchor="middle" x="402.2" y="-261.1" font-family="Helvetica,sans-Serif" font-size="16.00" fill="#0f172a">Local values ignored</text>
</g>
<!-- delivery_flow&#45;&gt;public_ready -->
<g id="edge13" class="edge">
<title>delivery_flow&#45;&gt;public_ready</title>
<path fill="none" stroke="#64748b" stroke-width="2" d="M402.2,-380.87C402.2,-373.85 402.2,-366.54 402.2,-359.31"/>
<polygon fill="#64748b" stroke="#64748b" stroke-width="2" points="405,-359.5 402.2,-351.5 399.4,-359.5 405,-359.5"/>
</g>
<!-- observability -->
<g id="node15" class="node">
<title>observability</title>
<path fill="#e9d5ff" stroke="#9333ea" d="M514.4,-221.04C514.4,-221.04 290,-221.04 290,-221.04 284,-221.04 278,-215.04 278,-209.04 278,-209.04 278,-139.02 278,-139.02 278,-133.02 284,-127.02 290,-127.02 290,-127.02 514.4,-127.02 514.4,-127.02 520.4,-127.02 526.4,-133.02 526.4,-139.02 526.4,-139.02 526.4,-209.04 526.4,-209.04 526.4,-215.04 520.4,-221.04 514.4,-221.04"/>
<text xml:space="preserve" text-anchor="middle" x="402.2" y="-200.08" font-family="Helvetica,sans-Serif" font-size="16.00" fill="#0f172a">Grafana observability</text>
<text xml:space="preserve" text-anchor="middle" x="402.2" y="-183.58" font-family="Helvetica,sans-Serif" font-size="16.00" fill="#0f172a">Structured service logs</text>
<text xml:space="preserve" text-anchor="middle" x="402.2" y="-167.08" font-family="Helvetica,sans-Serif" font-size="16.00" fill="#0f172a">OTLP metrics and traces</text>
<text xml:space="preserve" text-anchor="middle" x="402.2" y="-150.58" font-family="Helvetica,sans-Serif" font-size="16.00" fill="#0f172a">Namespace&#45;local Alloy</text>
<text xml:space="preserve" text-anchor="middle" x="402.2" y="-134.08" font-family="Helvetica,sans-Serif" font-size="16.00" fill="#0f172a">Grafana Cloud export</text>
</g>
<!-- public_ready&#45;&gt;observability -->
<g id="edge14" class="edge">
<title>public_ready&#45;&gt;observability</title>
<path fill="none" stroke="#64748b" stroke-width="2" d="M402.2,-253.85C402.2,-246.83 402.2,-239.52 402.2,-232.29"/>
<polygon fill="#64748b" stroke="#64748b" stroke-width="2" points="405,-232.48 402.2,-224.48 399.4,-232.48 405,-232.48"/>
</g>
<!-- next -->
<g id="node16" class="node">
<title>next</title>
<path fill="#fee2e2" stroke="#dc2626" d="M514.4,-94.02C514.4,-94.02 290,-94.02 290,-94.02 284,-94.02 278,-88.02 278,-82.02 278,-82.02 278,-12 278,-12 278,-6 284,0 290,0 290,0 514.4,0 514.4,0 520.4,0 526.4,-6 526.4,-12 526.4,-12 526.4,-82.02 526.4,-82.02 526.4,-88.02 520.4,-94.02 514.4,-94.02"/>
<text xml:space="preserve" text-anchor="middle" x="402.2" y="-73.06" font-family="Helvetica,sans-Serif" font-size="16.00" fill="#0f172a">Next implementation</text>
<text xml:space="preserve" text-anchor="middle" x="402.2" y="-56.56" font-family="Helvetica,sans-Serif" font-size="16.00" fill="#0f172a">Push notifications</text>
<text xml:space="preserve" text-anchor="middle" x="402.2" y="-40.06" font-family="Helvetica,sans-Serif" font-size="16.00" fill="#0f172a">Persistent state backup plan</text>
<text xml:space="preserve" text-anchor="middle" x="402.2" y="-23.56" font-family="Helvetica,sans-Serif" font-size="16.00" fill="#0f172a">Yahoo/iCloud hardening</text>
<text xml:space="preserve" text-anchor="middle" x="402.2" y="-7.06" font-family="Helvetica,sans-Serif" font-size="16.00" fill="#0f172a">Operational dashboard</text>
</g>
<!-- observability&#45;&gt;next -->
<g id="edge15" class="edge">
<title>observability&#45;&gt;next</title>
<path fill="none" stroke="#64748b" stroke-width="2" d="M402.2,-126.83C402.2,-119.81 402.2,-112.5 402.2,-105.27"/>
<polygon fill="#64748b" stroke="#64748b" stroke-width="2" points="405,-105.46 402.2,-97.46 399.4,-105.46 405,-105.46"/>
</g>
</g>
</svg>
