<?xml version="1.0" encoding="UTF-8" standalone="no"?>
<!DOCTYPE svg PUBLIC "-//W3C//DTD SVG 1.1//EN"
 "http://www.w3.org/Graphics/SVG/1.1/DTD/svg11.dtd">
<!-- Generated by graphviz version 15.0.0 (20260523.1842)
 -->
<!-- Title: priority_email_evolution_flow_dark Pages: 1 -->
<svg width="577pt" height="1324pt"
 viewBox="0.00 0.00 577.00 1324.00" xmlns="http://www.w3.org/2000/svg" xmlns:xlink="http://www.w3.org/1999/xlink">
<g id="graph0" class="graph" transform="scale(1 1) rotate(0) translate(25.2 1298.9)">
<title>priority_email_evolution_flow_dark</title>
<polygon fill="#111827" stroke="none" points="-25.2,25.2 -25.2,-1298.9 551.95,-1298.9 551.95,25.2 -25.2,25.2"/>
<text xml:space="preserve" text-anchor="middle" x="263.37" y="-1243.1" font-family="Helvetica,sans-Serif" font-size="28.00" fill="#f8fafc">Priority Email Evolution Flow</text>
<!-- requirements -->
<g id="node1" class="node">
<title>requirements</title>
<path fill="#0c4a6e" stroke="#38bdf8" d="M375.4,-1237.2C375.4,-1237.2 151,-1237.2 151,-1237.2 145,-1237.2 139,-1231.2 139,-1225.2 139,-1225.2 139,-1155.18 139,-1155.18 139,-1149.18 145,-1143.18 151,-1143.18 151,-1143.18 375.4,-1143.18 375.4,-1143.18 381.4,-1143.18 387.4,-1149.18 387.4,-1155.18 387.4,-1155.18 387.4,-1225.2 387.4,-1225.2 387.4,-1231.2 381.4,-1237.2 375.4,-1237.2"/>
<text xml:space="preserve" text-anchor="middle" x="263.2" y="-1216.24" font-family="Helvetica,sans-Serif" font-size="16.00" fill="#f8fafc">Requirements</text>
<text xml:space="preserve" text-anchor="middle" x="263.2" y="-1199.74" font-family="Helvetica,sans-Serif" font-size="16.00" fill="#f8fafc">Gmail, Yahoo, iCloud</text>
<text xml:space="preserve" text-anchor="middle" x="263.2" y="-1183.24" font-family="Helvetica,sans-Serif" font-size="16.00" fill="#f8fafc">Sender filters</text>
<text xml:space="preserve" text-anchor="middle" x="263.2" y="-1166.74" font-family="Helvetica,sans-Serif" font-size="16.00" fill="#f8fafc">Slack summaries</text>
<text xml:space="preserve" text-anchor="middle" x="263.2" y="-1150.24" font-family="Helvetica,sans-Serif" font-size="16.00" fill="#f8fafc">Phone push target</text>
</g>
<!-- config -->
<g id="node2" class="node">
<title>config</title>
<path fill="#14532d" stroke="#86efac" d="M375.4,-1110.18C375.4,-1110.18 151,-1110.18 151,-1110.18 145,-1110.18 139,-1104.18 139,-1098.18 139,-1098.18 139,-1028.16 139,-1028.16 139,-1022.16 145,-1016.16 151,-1016.16 151,-1016.16 375.4,-1016.16 375.4,-1016.16 381.4,-1016.16 387.4,-1022.16 387.4,-1028.16 387.4,-1028.16 387.4,-1098.18 387.4,-1098.18 387.4,-1104.18 381.4,-1110.18 375.4,-1110.18"/>
<text xml:space="preserve" text-anchor="middle" x="263.2" y="-1089.22" font-family="Helvetica,sans-Serif" font-size="16.00" fill="#f8fafc">Simple config</text>
<text xml:space="preserve" text-anchor="middle" x="263.2" y="-1072.72" font-family="Helvetica,sans-Serif" font-size="16.00" fill="#f8fafc">Local .env secrets</text>
<text xml:space="preserve" text-anchor="middle" x="263.2" y="-1056.22" font-family="Helvetica,sans-Serif" font-size="16.00" fill="#f8fafc">Filter templates only</text>
<text xml:space="preserve" text-anchor="middle" x="263.2" y="-1039.72" font-family="Helvetica,sans-Serif" font-size="16.00" fill="#f8fafc">Local filter values ignored</text>
<text xml:space="preserve" text-anchor="middle" x="263.2" y="-1023.22" font-family="Helvetica,sans-Serif" font-size="16.00" fill="#f8fafc">Newest&#45;first entries</text>
</g>
<!-- requirements&#45;&gt;config -->
<g id="edge1" class="edge">
<title>requirements&#45;&gt;config</title>
<path fill="none" stroke="#94a3b8" stroke-width="2" d="M263.2,-1142.99C263.2,-1135.97 263.2,-1128.66 263.2,-1121.43"/>
<polygon fill="#94a3b8" stroke="#94a3b8" stroke-width="2" points="266,-1121.62 263.2,-1113.62 260.4,-1121.62 266,-1121.62"/>
</g>
<!-- deployment -->
<g id="node3" class="node">
<title>deployment</title>
<path fill="#713f12" stroke="#facc15" d="M388.5,-983.16C388.5,-983.16 137.9,-983.16 137.9,-983.16 131.9,-983.16 125.91,-977.16 125.91,-971.16 125.91,-971.16 125.91,-901.14 125.91,-901.14 125.91,-895.14 131.91,-889.14 137.91,-889.14 137.91,-889.14 388.5,-889.14 388.5,-889.14 394.5,-889.14 400.5,-895.14 400.5,-901.14 400.5,-901.14 400.5,-971.16 400.5,-971.16 400.5,-977.16 394.5,-983.16 388.5,-983.16"/>
<text xml:space="preserve" text-anchor="middle" x="263.2" y="-962.2" font-family="Helvetica,sans-Serif" font-size="16.00" fill="#f8fafc">AWS deployment plan</text>
<text xml:space="preserve" text-anchor="middle" x="263.2" y="-945.7" font-family="Helvetica,sans-Serif" font-size="16.00" fill="#f8fafc">ensemble&#45;grafana profile</text>
<text xml:space="preserve" text-anchor="middle" x="263.2" y="-929.2" font-family="Helvetica,sans-Serif" font-size="16.00" fill="#f8fafc">Dedicated priority&#45;email namespace</text>
<text xml:space="preserve" text-anchor="middle" x="263.2" y="-912.7" font-family="Helvetica,sans-Serif" font-size="16.00" fill="#f8fafc">DynamoDB checkpoints</text>
<text xml:space="preserve" text-anchor="middle" x="263.2" y="-896.2" font-family="Helvetica,sans-Serif" font-size="16.00" fill="#f8fafc">ConfigMap filters</text>
</g>
<!-- config&#45;&gt;deployment -->
<g id="edge2" class="edge">
<title>config&#45;&gt;deployment</title>
<path fill="none" stroke="#94a3b8" stroke-width="2" d="M263.2,-1015.97C263.2,-1008.95 263.2,-1001.64 263.2,-994.41"/>
<polygon fill="#94a3b8" stroke="#94a3b8" stroke-width="2" points="266,-994.6 263.2,-986.6 260.4,-994.6 266,-994.6"/>
</g>
<!-- push -->
<g id="node4" class="node">
<title>push</title>
<path fill="#4c1d95" stroke="#c4b5fd" d="M236.4,-847.89C236.4,-847.89 12,-847.89 12,-847.89 6,-847.89 0,-841.89 0,-835.89 0,-835.89 0,-782.37 0,-782.37 0,-776.37 6,-770.37 12,-770.37 12,-770.37 236.4,-770.37 236.4,-770.37 242.4,-770.37 248.4,-776.37 248.4,-782.37 248.4,-782.37 248.4,-835.89 248.4,-835.89 248.4,-841.89 242.4,-847.89 236.4,-847.89"/>
<text xml:space="preserve" text-anchor="middle" x="124.2" y="-826.93" font-family="Helvetica,sans-Serif" font-size="16.00" fill="#f8fafc">Push provider choice</text>
<text xml:space="preserve" text-anchor="middle" x="124.2" y="-810.43" font-family="Helvetica,sans-Serif" font-size="16.00" fill="#f8fafc">AWS End User Messaging Push</text>
<text xml:space="preserve" text-anchor="middle" x="124.2" y="-793.93" font-family="Helvetica,sans-Serif" font-size="16.00" fill="#f8fafc">Low&#45;cost AWS&#45;native target</text>
<text xml:space="preserve" text-anchor="middle" x="124.2" y="-777.43" font-family="Helvetica,sans-Serif" font-size="16.00" fill="#f8fafc">MVP fallbacks documented</text>
</g>
<!-- deployment&#45;&gt;push -->
<g id="edge3" class="edge">
<title>deployment&#45;&gt;push</title>
<path fill="none" stroke="#94a3b8" stroke-width="2" d="M211.84,-888.95C199.77,-878.1 186.92,-866.55 174.89,-855.72"/>
<polygon fill="#94a3b8" stroke="#94a3b8" stroke-width="2" points="176.78,-853.65 168.96,-850.39 173.03,-857.82 176.78,-853.65"/>
</g>
<!-- gmail -->
<g id="node5" class="node">
<title>gmail</title>
<path fill="#134e4a" stroke="#5eead4" d="M514.4,-856.14C514.4,-856.14 290,-856.14 290,-856.14 284,-856.14 278,-850.14 278,-844.14 278,-844.14 278,-774.12 278,-774.12 278,-768.12 284,-762.12 290,-762.12 290,-762.12 514.4,-762.12 514.4,-762.12 520.4,-762.12 526.4,-768.12 526.4,-774.12 526.4,-774.12 526.4,-844.14 526.4,-844.14 526.4,-850.14 520.4,-856.14 514.4,-856.14"/>
<text xml:space="preserve" text-anchor="middle" x="402.2" y="-835.18" font-family="Helvetica,sans-Serif" font-size="16.00" fill="#f8fafc">Gmail validated</text>
<text xml:space="preserve" text-anchor="middle" x="402.2" y="-818.68" font-family="Helvetica,sans-Serif" font-size="16.00" fill="#f8fafc">Google Cloud OAuth</text>
<text xml:space="preserve" text-anchor="middle" x="402.2" y="-802.18" font-family="Helvetica,sans-Serif" font-size="16.00" fill="#f8fafc">Refresh token in .env</text>
<text xml:space="preserve" text-anchor="middle" x="402.2" y="-785.68" font-family="Helvetica,sans-Serif" font-size="16.00" fill="#f8fafc">Metadata read succeeded</text>
<text xml:space="preserve" text-anchor="middle" x="402.2" y="-769.18" font-family="Helvetica,sans-Serif" font-size="16.00" fill="#f8fafc">Poller checkpointed</text>
</g>
<!-- deployment&#45;&gt;gmail -->
<g id="edge4" class="edge">
<title>deployment&#45;&gt;gmail</title>
<path fill="none" stroke="#94a3b8" stroke-width="2" d="M314.56,-888.95C323.66,-880.77 333.19,-872.2 342.49,-863.83"/>
<polygon fill="#94a3b8" stroke="#94a3b8" stroke-width="2" points="344.26,-866.01 348.33,-858.58 340.51,-861.85 344.26,-866.01"/>
</g>
<!-- slack -->
<g id="node6" class="node">
<title>slack</title>
<path fill="#831843" stroke="#f9a8d4" d="M514.4,-729.12C514.4,-729.12 290,-729.12 290,-729.12 284,-729.12 278,-723.12 278,-717.12 278,-717.12 278,-647.1 278,-647.1 278,-641.1 284,-635.1 290,-635.1 290,-635.1 514.4,-635.1 514.4,-635.1 520.4,-635.1 526.4,-641.1 526.4,-647.1 526.4,-647.1 526.4,-717.12 526.4,-717.12 526.4,-723.12 520.4,-729.12 514.4,-729.12"/>
<text xml:space="preserve" text-anchor="middle" x="402.2" y="-708.16" font-family="Helvetica,sans-Serif" font-size="16.00" fill="#f8fafc">Slack validated</text>
<text xml:space="preserve" text-anchor="middle" x="402.2" y="-691.66" font-family="Helvetica,sans-Serif" font-size="16.00" fill="#f8fafc">Priority Email app</text>
<text xml:space="preserve" text-anchor="middle" x="402.2" y="-675.16" font-family="Helvetica,sans-Serif" font-size="16.00" fill="#f8fafc">chat:write scope</text>
<text xml:space="preserve" text-anchor="middle" x="402.2" y="-658.66" font-family="Helvetica,sans-Serif" font-size="16.00" fill="#f8fafc">Bot invited to channel</text>
<text xml:space="preserve" text-anchor="middle" x="402.2" y="-642.16" font-family="Helvetica,sans-Serif" font-size="16.00" fill="#f8fafc">Test post succeeded</text>
</g>
<!-- gmail&#45;&gt;slack -->
<g id="edge5" class="edge">
<title>gmail&#45;&gt;slack</title>
<path fill="none" stroke="#94a3b8" stroke-width="2" d="M402.2,-761.93C402.2,-754.91 402.2,-747.6 402.2,-740.37"/>
<polygon fill="#94a3b8" stroke="#94a3b8" stroke-width="2" points="405,-740.56 402.2,-732.56 399.4,-740.56 405,-740.56"/>
</g>
<!-- policy -->
<g id="node7" class="node">
<title>policy</title>
<path fill="#334155" stroke="#cbd5e1" d="M514.4,-602.1C514.4,-602.1 290,-602.1 290,-602.1 284,-602.1 278,-596.1 278,-590.1 278,-590.1 278,-520.08 278,-520.08 278,-514.08 284,-508.08 290,-508.08 290,-508.08 514.4,-508.08 514.4,-508.08 520.4,-508.08 526.4,-514.08 526.4,-520.08 526.4,-520.08 526.4,-590.1 526.4,-590.1 526.4,-596.1 520.4,-602.1 514.4,-602.1"/>
<text xml:space="preserve" text-anchor="middle" x="402.2" y="-581.14" font-family="Helvetica,sans-Serif" font-size="16.00" fill="#f8fafc">Repo memory</text>
<text xml:space="preserve" text-anchor="middle" x="402.2" y="-564.64" font-family="Helvetica,sans-Serif" font-size="16.00" fill="#f8fafc">Global EVOLUTION policy</text>
<text xml:space="preserve" text-anchor="middle" x="402.2" y="-548.14" font-family="Helvetica,sans-Serif" font-size="16.00" fill="#f8fafc">Repo AGENTS guidance</text>
<text xml:space="preserve" text-anchor="middle" x="402.2" y="-531.64" font-family="Helvetica,sans-Serif" font-size="16.00" fill="#f8fafc">Category history</text>
<text xml:space="preserve" text-anchor="middle" x="402.2" y="-515.14" font-family="Helvetica,sans-Serif" font-size="16.00" fill="#f8fafc">Generated flow diagrams</text>
</g>
<!-- slack&#45;&gt;policy -->
<g id="edge6" class="edge">
<title>slack&#45;&gt;policy</title>
<path fill="none" stroke="#94a3b8" stroke-width="2" d="M402.2,-634.91C402.2,-627.89 402.2,-620.58 402.2,-613.35"/>
<polygon fill="#94a3b8" stroke="#94a3b8" stroke-width="2" points="405,-613.54 402.2,-605.54 399.4,-613.54 405,-613.54"/>
</g>
<!-- quality -->
<g id="node8" class="node">
<title>quality</title>
<path fill="#075985" stroke="#7dd3fc" d="M514.4,-475.08C514.4,-475.08 290,-475.08 290,-475.08 284,-475.08 278,-469.08 278,-463.08 278,-463.08 278,-393.06 278,-393.06 278,-387.06 284,-381.06 290,-381.06 290,-381.06 514.4,-381.06 514.4,-381.06 520.4,-381.06 526.4,-387.06 526.4,-393.06 526.4,-393.06 526.4,-463.08 526.4,-463.08 526.4,-469.08 520.4,-475.08 514.4,-475.08"/>
<text xml:space="preserve" text-anchor="middle" x="402.2" y="-454.12" font-family="Helvetica,sans-Serif" font-size="16.00" fill="#f8fafc">Team skills applied</text>
<text xml:space="preserve" text-anchor="middle" x="402.2" y="-437.62" font-family="Helvetica,sans-Serif" font-size="16.00" fill="#f8fafc">Spec&#45;driven work</text>
<text xml:space="preserve" text-anchor="middle" x="402.2" y="-421.12" font-family="Helvetica,sans-Serif" font-size="16.00" fill="#f8fafc">TDD and unit tests</text>
<text xml:space="preserve" text-anchor="middle" x="402.2" y="-404.62" font-family="Helvetica,sans-Serif" font-size="16.00" fill="#f8fafc">Security hardening</text>
<text xml:space="preserve" text-anchor="middle" x="402.2" y="-388.12" font-family="Helvetica,sans-Serif" font-size="16.00" fill="#f8fafc">Review gates</text>
</g>
<!-- policy&#45;&gt;quality -->
<g id="edge7" class="edge">
<title>policy&#45;&gt;quality</title>
<path fill="none" stroke="#94a3b8" stroke-width="2" d="M402.2,-507.89C402.2,-500.87 402.2,-493.56 402.2,-486.33"/>
<polygon fill="#94a3b8" stroke="#94a3b8" stroke-width="2" points="405,-486.52 402.2,-478.52 399.4,-486.52 405,-486.52"/>
</g>
<!-- github -->
<g id="node9" class="node">
<title>github</title>
<path fill="#0f172a" stroke="#e5e7eb" d="M514.4,-348.06C514.4,-348.06 290,-348.06 290,-348.06 284,-348.06 278,-342.06 278,-336.06 278,-336.06 278,-266.04 278,-266.04 278,-260.04 284,-254.04 290,-254.04 290,-254.04 514.4,-254.04 514.4,-254.04 520.4,-254.04 526.4,-260.04 526.4,-266.04 526.4,-266.04 526.4,-336.06 526.4,-336.06 526.4,-342.06 520.4,-348.06 514.4,-348.06"/>
<text xml:space="preserve" text-anchor="middle" x="402.2" y="-327.1" font-family="Helvetica,sans-Serif" font-size="16.00" fill="#f8fafc">GitHub publication</text>
<text xml:space="preserve" text-anchor="middle" x="402.2" y="-310.6" font-family="Helvetica,sans-Serif" font-size="16.00" fill="#f8fafc">README landing page</text>
<text xml:space="preserve" text-anchor="middle" x="402.2" y="-294.1" font-family="Helvetica,sans-Serif" font-size="16.00" fill="#f8fafc">Safe staged set</text>
<text xml:space="preserve" text-anchor="middle" x="402.2" y="-277.6" font-family="Helvetica,sans-Serif" font-size="16.00" fill="#f8fafc">Secrets ignored</text>
<text xml:space="preserve" text-anchor="middle" x="402.2" y="-261.1" font-family="Helvetica,sans-Serif" font-size="16.00" fill="#f8fafc">Tests pass</text>
</g>
<!-- quality&#45;&gt;github -->
<g id="edge8" class="edge">
<title>quality&#45;&gt;github</title>
<path fill="none" stroke="#94a3b8" stroke-width="2" d="M402.2,-380.87C402.2,-373.85 402.2,-366.54 402.2,-359.31"/>
<polygon fill="#94a3b8" stroke="#94a3b8" stroke-width="2" points="405,-359.5 402.2,-351.5 399.4,-359.5 405,-359.5"/>
</g>
<!-- aws_live -->
<g id="node10" class="node">
<title>aws_live</title>
<path fill="#365314" stroke="#bef264" d="M514.4,-221.04C514.4,-221.04 290,-221.04 290,-221.04 284,-221.04 278,-215.04 278,-209.04 278,-209.04 278,-139.02 278,-139.02 278,-133.02 284,-127.02 290,-127.02 290,-127.02 514.4,-127.02 514.4,-127.02 520.4,-127.02 526.4,-133.02 526.4,-139.02 526.4,-139.02 526.4,-209.04 526.4,-209.04 526.4,-215.04 520.4,-221.04 514.4,-221.04"/>
<text xml:space="preserve" text-anchor="middle" x="402.2" y="-200.08" font-family="Helvetica,sans-Serif" font-size="16.00" fill="#f8fafc">AWS worker live</text>
<text xml:space="preserve" text-anchor="middle" x="402.2" y="-183.58" font-family="Helvetica,sans-Serif" font-size="16.00" fill="#f8fafc">ECR image pushed</text>
<text xml:space="preserve" text-anchor="middle" x="402.2" y="-167.08" font-family="Helvetica,sans-Serif" font-size="16.00" fill="#f8fafc">Secrets Manager runtime</text>
<text xml:space="preserve" text-anchor="middle" x="402.2" y="-150.58" font-family="Helvetica,sans-Serif" font-size="16.00" fill="#f8fafc">ConfigMap filters</text>
<text xml:space="preserve" text-anchor="middle" x="402.2" y="-134.08" font-family="Helvetica,sans-Serif" font-size="16.00" fill="#f8fafc">priority&#45;email namespace</text>
</g>
<!-- github&#45;&gt;aws_live -->
<g id="edge9" class="edge">
<title>github&#45;&gt;aws_live</title>
<path fill="none" stroke="#94a3b8" stroke-width="2" d="M402.2,-253.85C402.2,-246.83 402.2,-239.52 402.2,-232.29"/>
<polygon fill="#94a3b8" stroke="#94a3b8" stroke-width="2" points="405,-232.48 402.2,-224.48 399.4,-232.48 405,-232.48"/>
</g>
<!-- next -->
<g id="node11" class="node">
<title>next</title>
<path fill="#7f1d1d" stroke="#fca5a5" d="M514.75,-94.02C514.75,-94.02 289.65,-94.02 289.65,-94.02 283.65,-94.02 277.65,-88.02 277.65,-82.02 277.65,-82.02 277.65,-12 277.65,-12 277.65,-6 283.65,0 289.65,0 289.65,0 514.75,0 514.75,0 520.75,0 526.75,-6 526.75,-12 526.75,-12 526.75,-82.02 526.75,-82.02 526.75,-88.02 520.75,-94.02 514.75,-94.02"/>
<text xml:space="preserve" text-anchor="middle" x="402.2" y="-73.06" font-family="Helvetica,sans-Serif" font-size="16.00" fill="#f8fafc">Next implementation</text>
<text xml:space="preserve" text-anchor="middle" x="402.2" y="-56.56" font-family="Helvetica,sans-Serif" font-size="16.00" fill="#f8fafc">Durable DynamoDB checkpoints</text>
<text xml:space="preserve" text-anchor="middle" x="402.2" y="-40.06" font-family="Helvetica,sans-Serif" font-size="16.00" fill="#f8fafc">Filter matching pipeline</text>
<text xml:space="preserve" text-anchor="middle" x="402.2" y="-23.56" font-family="Helvetica,sans-Serif" font-size="16.00" fill="#f8fafc">Slack summaries from matches</text>
<text xml:space="preserve" text-anchor="middle" x="402.2" y="-7.06" font-family="Helvetica,sans-Serif" font-size="16.00" fill="#f8fafc">Yahoo/iCloud pollers</text>
</g>
<!-- aws_live&#45;&gt;next -->
<g id="edge10" class="edge">
<title>aws_live&#45;&gt;next</title>
<path fill="none" stroke="#94a3b8" stroke-width="2" d="M402.2,-126.83C402.2,-119.81 402.2,-112.5 402.2,-105.27"/>
<polygon fill="#94a3b8" stroke="#94a3b8" stroke-width="2" points="405,-105.46 402.2,-97.46 399.4,-105.46 405,-105.46"/>
</g>
</g>
</svg>
