<?xml version="1.0" encoding="UTF-8" standalone="no"?>
<!DOCTYPE svg PUBLIC "-//W3C//DTD SVG 1.1//EN"
 "http://www.w3.org/Graphics/SVG/1.1/DTD/svg11.dtd">
<!-- Generated by graphviz version 15.0.0 (20260523.1842)
 -->
<!-- Title: priority_email_evolution_flow Pages: 1 -->
<svg width="577pt" height="1578pt"
 viewBox="0.00 0.00 577.00 1578.00" xmlns="http://www.w3.org/2000/svg" xmlns:xlink="http://www.w3.org/1999/xlink">
<g id="graph0" class="graph" transform="scale(1 1) rotate(0) translate(25.2 1552.94)">
<title>priority_email_evolution_flow</title>
<polygon fill="#ffffff" stroke="none" points="-25.2,25.2 -25.2,-1552.94 551.95,-1552.94 551.95,25.2 -25.2,25.2"/>
<text xml:space="preserve" text-anchor="middle" x="263.37" y="-1497.14" font-family="Helvetica,sans-Serif" font-size="28.00">Priority Email Evolution Flow</text>
<!-- requirements -->
<g id="node1" class="node">
<title>requirements</title>
<path fill="#e0f2fe" stroke="#0284c7" d="M375.4,-1491.24C375.4,-1491.24 151,-1491.24 151,-1491.24 145,-1491.24 139,-1485.24 139,-1479.24 139,-1479.24 139,-1409.22 139,-1409.22 139,-1403.22 145,-1397.22 151,-1397.22 151,-1397.22 375.4,-1397.22 375.4,-1397.22 381.4,-1397.22 387.4,-1403.22 387.4,-1409.22 387.4,-1409.22 387.4,-1479.24 387.4,-1479.24 387.4,-1485.24 381.4,-1491.24 375.4,-1491.24"/>
<text xml:space="preserve" text-anchor="middle" x="263.2" y="-1470.28" font-family="Helvetica,sans-Serif" font-size="16.00" fill="#0f172a">Requirements</text>
<text xml:space="preserve" text-anchor="middle" x="263.2" y="-1453.78" font-family="Helvetica,sans-Serif" font-size="16.00" fill="#0f172a">Gmail, Yahoo, iCloud</text>
<text xml:space="preserve" text-anchor="middle" x="263.2" y="-1437.28" font-family="Helvetica,sans-Serif" font-size="16.00" fill="#0f172a">Sender filters</text>
<text xml:space="preserve" text-anchor="middle" x="263.2" y="-1420.78" font-family="Helvetica,sans-Serif" font-size="16.00" fill="#0f172a">Slack summaries</text>
<text xml:space="preserve" text-anchor="middle" x="263.2" y="-1404.28" font-family="Helvetica,sans-Serif" font-size="16.00" fill="#0f172a">Phone push target</text>
</g>
<!-- config -->
<g id="node2" class="node">
<title>config</title>
<path fill="#dcfce7" stroke="#16a34a" d="M375.4,-1364.22C375.4,-1364.22 151,-1364.22 151,-1364.22 145,-1364.22 139,-1358.22 139,-1352.22 139,-1352.22 139,-1282.2 139,-1282.2 139,-1276.2 145,-1270.2 151,-1270.2 151,-1270.2 375.4,-1270.2 375.4,-1270.2 381.4,-1270.2 387.4,-1276.2 387.4,-1282.2 387.4,-1282.2 387.4,-1352.22 387.4,-1352.22 387.4,-1358.22 381.4,-1364.22 375.4,-1364.22"/>
<text xml:space="preserve" text-anchor="middle" x="263.2" y="-1343.26" font-family="Helvetica,sans-Serif" font-size="16.00" fill="#0f172a">Simple config</text>
<text xml:space="preserve" text-anchor="middle" x="263.2" y="-1326.76" font-family="Helvetica,sans-Serif" font-size="16.00" fill="#0f172a">Local .env secrets</text>
<text xml:space="preserve" text-anchor="middle" x="263.2" y="-1310.26" font-family="Helvetica,sans-Serif" font-size="16.00" fill="#0f172a">Filter templates only</text>
<text xml:space="preserve" text-anchor="middle" x="263.2" y="-1293.76" font-family="Helvetica,sans-Serif" font-size="16.00" fill="#0f172a">Local filter values ignored</text>
<text xml:space="preserve" text-anchor="middle" x="263.2" y="-1277.26" font-family="Helvetica,sans-Serif" font-size="16.00" fill="#0f172a">Newest&#45;first entries</text>
</g>
<!-- requirements&#45;&gt;config -->
<g id="edge1" class="edge">
<title>requirements&#45;&gt;config</title>
<path fill="none" stroke="#64748b" stroke-width="2" d="M263.2,-1397.03C263.2,-1390.01 263.2,-1382.7 263.2,-1375.47"/>
<polygon fill="#64748b" stroke="#64748b" stroke-width="2" points="266,-1375.66 263.2,-1367.66 260.4,-1375.66 266,-1375.66"/>
</g>
<!-- deployment -->
<g id="node3" class="node">
<title>deployment</title>
<path fill="#fef3c7" stroke="#d97706" d="M388.5,-1237.2C388.5,-1237.2 137.9,-1237.2 137.9,-1237.2 131.9,-1237.2 125.91,-1231.2 125.91,-1225.2 125.91,-1225.2 125.91,-1155.18 125.91,-1155.18 125.91,-1149.18 131.91,-1143.18 137.91,-1143.18 137.91,-1143.18 388.5,-1143.18 388.5,-1143.18 394.5,-1143.18 400.5,-1149.18 400.5,-1155.18 400.5,-1155.18 400.5,-1225.2 400.5,-1225.2 400.5,-1231.2 394.5,-1237.2 388.5,-1237.2"/>
<text xml:space="preserve" text-anchor="middle" x="263.2" y="-1216.24" font-family="Helvetica,sans-Serif" font-size="16.00" fill="#0f172a">AWS deployment plan</text>
<text xml:space="preserve" text-anchor="middle" x="263.2" y="-1199.74" font-family="Helvetica,sans-Serif" font-size="16.00" fill="#0f172a">ensemble&#45;grafana profile</text>
<text xml:space="preserve" text-anchor="middle" x="263.2" y="-1183.24" font-family="Helvetica,sans-Serif" font-size="16.00" fill="#0f172a">Dedicated priority&#45;email namespace</text>
<text xml:space="preserve" text-anchor="middle" x="263.2" y="-1166.74" font-family="Helvetica,sans-Serif" font-size="16.00" fill="#0f172a">DynamoDB checkpoints</text>
<text xml:space="preserve" text-anchor="middle" x="263.2" y="-1150.24" font-family="Helvetica,sans-Serif" font-size="16.00" fill="#0f172a">ConfigMap filters</text>
</g>
<!-- config&#45;&gt;deployment -->
<g id="edge2" class="edge">
<title>config&#45;&gt;deployment</title>
<path fill="none" stroke="#64748b" stroke-width="2" d="M263.2,-1270.01C263.2,-1262.99 263.2,-1255.68 263.2,-1248.45"/>
<polygon fill="#64748b" stroke="#64748b" stroke-width="2" points="266,-1248.64 263.2,-1240.64 260.4,-1248.64 266,-1248.64"/>
</g>
<!-- push -->
<g id="node4" class="node">
<title>push</title>
<path fill="#ede9fe" stroke="#7c3aed" d="M236.4,-1101.93C236.4,-1101.93 12,-1101.93 12,-1101.93 6,-1101.93 0,-1095.93 0,-1089.93 0,-1089.93 0,-1036.41 0,-1036.41 0,-1030.41 6,-1024.41 12,-1024.41 12,-1024.41 236.4,-1024.41 236.4,-1024.41 242.4,-1024.41 248.4,-1030.41 248.4,-1036.41 248.4,-1036.41 248.4,-1089.93 248.4,-1089.93 248.4,-1095.93 242.4,-1101.93 236.4,-1101.93"/>
<text xml:space="preserve" text-anchor="middle" x="124.2" y="-1080.97" font-family="Helvetica,sans-Serif" font-size="16.00" fill="#0f172a">Push provider choice</text>
<text xml:space="preserve" text-anchor="middle" x="124.2" y="-1064.47" font-family="Helvetica,sans-Serif" font-size="16.00" fill="#0f172a">AWS End User Messaging Push</text>
<text xml:space="preserve" text-anchor="middle" x="124.2" y="-1047.97" font-family="Helvetica,sans-Serif" font-size="16.00" fill="#0f172a">Low&#45;cost AWS&#45;native target</text>
<text xml:space="preserve" text-anchor="middle" x="124.2" y="-1031.47" font-family="Helvetica,sans-Serif" font-size="16.00" fill="#0f172a">MVP fallbacks documented</text>
</g>
<!-- deployment&#45;&gt;push -->
<g id="edge3" class="edge">
<title>deployment&#45;&gt;push</title>
<path fill="none" stroke="#64748b" stroke-width="2" d="M211.84,-1142.99C199.77,-1132.14 186.92,-1120.59 174.89,-1109.76"/>
<polygon fill="#64748b" stroke="#64748b" stroke-width="2" points="176.78,-1107.69 168.96,-1104.43 173.03,-1111.86 176.78,-1107.69"/>
</g>
<!-- gmail -->
<g id="node5" class="node">
<title>gmail</title>
<path fill="#ccfbf1" stroke="#0d9488" d="M514.4,-1110.18C514.4,-1110.18 290,-1110.18 290,-1110.18 284,-1110.18 278,-1104.18 278,-1098.18 278,-1098.18 278,-1028.16 278,-1028.16 278,-1022.16 284,-1016.16 290,-1016.16 290,-1016.16 514.4,-1016.16 514.4,-1016.16 520.4,-1016.16 526.4,-1022.16 526.4,-1028.16 526.4,-1028.16 526.4,-1098.18 526.4,-1098.18 526.4,-1104.18 520.4,-1110.18 514.4,-1110.18"/>
<text xml:space="preserve" text-anchor="middle" x="402.2" y="-1089.22" font-family="Helvetica,sans-Serif" font-size="16.00" fill="#0f172a">Gmail validated</text>
<text xml:space="preserve" text-anchor="middle" x="402.2" y="-1072.72" font-family="Helvetica,sans-Serif" font-size="16.00" fill="#0f172a">Google Cloud OAuth</text>
<text xml:space="preserve" text-anchor="middle" x="402.2" y="-1056.22" font-family="Helvetica,sans-Serif" font-size="16.00" fill="#0f172a">Refresh token in .env</text>
<text xml:space="preserve" text-anchor="middle" x="402.2" y="-1039.72" font-family="Helvetica,sans-Serif" font-size="16.00" fill="#0f172a">Metadata read succeeded</text>
<text xml:space="preserve" text-anchor="middle" x="402.2" y="-1023.22" font-family="Helvetica,sans-Serif" font-size="16.00" fill="#0f172a">Poller checkpointed</text>
</g>
<!-- deployment&#45;&gt;gmail -->
<g id="edge4" class="edge">
<title>deployment&#45;&gt;gmail</title>
<path fill="none" stroke="#64748b" stroke-width="2" d="M314.56,-1142.99C323.66,-1134.81 333.19,-1126.24 342.49,-1117.87"/>
<polygon fill="#64748b" stroke="#64748b" stroke-width="2" points="344.26,-1120.05 348.33,-1112.62 340.51,-1115.89 344.26,-1120.05"/>
</g>
<!-- slack -->
<g id="node6" class="node">
<title>slack</title>
<path fill="#fce7f3" stroke="#db2777" d="M514.4,-983.16C514.4,-983.16 290,-983.16 290,-983.16 284,-983.16 278,-977.16 278,-971.16 278,-971.16 278,-901.14 278,-901.14 278,-895.14 284,-889.14 290,-889.14 290,-889.14 514.4,-889.14 514.4,-889.14 520.4,-889.14 526.4,-895.14 526.4,-901.14 526.4,-901.14 526.4,-971.16 526.4,-971.16 526.4,-977.16 520.4,-983.16 514.4,-983.16"/>
<text xml:space="preserve" text-anchor="middle" x="402.2" y="-962.2" font-family="Helvetica,sans-Serif" font-size="16.00" fill="#0f172a">Slack validated</text>
<text xml:space="preserve" text-anchor="middle" x="402.2" y="-945.7" font-family="Helvetica,sans-Serif" font-size="16.00" fill="#0f172a">Priority Email app</text>
<text xml:space="preserve" text-anchor="middle" x="402.2" y="-929.2" font-family="Helvetica,sans-Serif" font-size="16.00" fill="#0f172a">chat:write scope</text>
<text xml:space="preserve" text-anchor="middle" x="402.2" y="-912.7" font-family="Helvetica,sans-Serif" font-size="16.00" fill="#0f172a">Bot invited to channel</text>
<text xml:space="preserve" text-anchor="middle" x="402.2" y="-896.2" font-family="Helvetica,sans-Serif" font-size="16.00" fill="#0f172a">Test post succeeded</text>
</g>
<!-- gmail&#45;&gt;slack -->
<g id="edge5" class="edge">
<title>gmail&#45;&gt;slack</title>
<path fill="none" stroke="#64748b" stroke-width="2" d="M402.2,-1015.97C402.2,-1008.95 402.2,-1001.64 402.2,-994.41"/>
<polygon fill="#64748b" stroke="#64748b" stroke-width="2" points="405,-994.6 402.2,-986.6 399.4,-994.6 405,-994.6"/>
</g>
<!-- policy -->
<g id="node7" class="node">
<title>policy</title>
<path fill="#e2e8f0" stroke="#475569" d="M514.4,-856.14C514.4,-856.14 290,-856.14 290,-856.14 284,-856.14 278,-850.14 278,-844.14 278,-844.14 278,-774.12 278,-774.12 278,-768.12 284,-762.12 290,-762.12 290,-762.12 514.4,-762.12 514.4,-762.12 520.4,-762.12 526.4,-768.12 526.4,-774.12 526.4,-774.12 526.4,-844.14 526.4,-844.14 526.4,-850.14 520.4,-856.14 514.4,-856.14"/>
<text xml:space="preserve" text-anchor="middle" x="402.2" y="-835.18" font-family="Helvetica,sans-Serif" font-size="16.00" fill="#0f172a">Repo memory</text>
<text xml:space="preserve" text-anchor="middle" x="402.2" y="-818.68" font-family="Helvetica,sans-Serif" font-size="16.00" fill="#0f172a">Global EVOLUTION policy</text>
<text xml:space="preserve" text-anchor="middle" x="402.2" y="-802.18" font-family="Helvetica,sans-Serif" font-size="16.00" fill="#0f172a">Repo AGENTS guidance</text>
<text xml:space="preserve" text-anchor="middle" x="402.2" y="-785.68" font-family="Helvetica,sans-Serif" font-size="16.00" fill="#0f172a">Category history</text>
<text xml:space="preserve" text-anchor="middle" x="402.2" y="-769.18" font-family="Helvetica,sans-Serif" font-size="16.00" fill="#0f172a">Generated flow diagrams</text>
</g>
<!-- slack&#45;&gt;policy -->
<g id="edge6" class="edge">
<title>slack&#45;&gt;policy</title>
<path fill="none" stroke="#64748b" stroke-width="2" d="M402.2,-888.95C402.2,-881.93 402.2,-874.62 402.2,-867.39"/>
<polygon fill="#64748b" stroke="#64748b" stroke-width="2" points="405,-867.58 402.2,-859.58 399.4,-867.58 405,-867.58"/>
</g>
<!-- quality -->
<g id="node8" class="node">
<title>quality</title>
<path fill="#f0f9ff" stroke="#0369a1" d="M514.4,-729.12C514.4,-729.12 290,-729.12 290,-729.12 284,-729.12 278,-723.12 278,-717.12 278,-717.12 278,-647.1 278,-647.1 278,-641.1 284,-635.1 290,-635.1 290,-635.1 514.4,-635.1 514.4,-635.1 520.4,-635.1 526.4,-641.1 526.4,-647.1 526.4,-647.1 526.4,-717.12 526.4,-717.12 526.4,-723.12 520.4,-729.12 514.4,-729.12"/>
<text xml:space="preserve" text-anchor="middle" x="402.2" y="-708.16" font-family="Helvetica,sans-Serif" font-size="16.00" fill="#0f172a">Team skills applied</text>
<text xml:space="preserve" text-anchor="middle" x="402.2" y="-691.66" font-family="Helvetica,sans-Serif" font-size="16.00" fill="#0f172a">Spec&#45;driven work</text>
<text xml:space="preserve" text-anchor="middle" x="402.2" y="-675.16" font-family="Helvetica,sans-Serif" font-size="16.00" fill="#0f172a">TDD and unit tests</text>
<text xml:space="preserve" text-anchor="middle" x="402.2" y="-658.66" font-family="Helvetica,sans-Serif" font-size="16.00" fill="#0f172a">Security hardening</text>
<text xml:space="preserve" text-anchor="middle" x="402.2" y="-642.16" font-family="Helvetica,sans-Serif" font-size="16.00" fill="#0f172a">Review gates</text>
</g>
<!-- policy&#45;&gt;quality -->
<g id="edge7" class="edge">
<title>policy&#45;&gt;quality</title>
<path fill="none" stroke="#64748b" stroke-width="2" d="M402.2,-761.93C402.2,-754.91 402.2,-747.6 402.2,-740.37"/>
<polygon fill="#64748b" stroke="#64748b" stroke-width="2" points="405,-740.56 402.2,-732.56 399.4,-740.56 405,-740.56"/>
</g>
<!-- github -->
<g id="node9" class="node">
<title>github</title>
<path fill="#f8fafc" stroke="#0f172a" d="M514.4,-602.1C514.4,-602.1 290,-602.1 290,-602.1 284,-602.1 278,-596.1 278,-590.1 278,-590.1 278,-520.08 278,-520.08 278,-514.08 284,-508.08 290,-508.08 290,-508.08 514.4,-508.08 514.4,-508.08 520.4,-508.08 526.4,-514.08 526.4,-520.08 526.4,-520.08 526.4,-590.1 526.4,-590.1 526.4,-596.1 520.4,-602.1 514.4,-602.1"/>
<text xml:space="preserve" text-anchor="middle" x="402.2" y="-581.14" font-family="Helvetica,sans-Serif" font-size="16.00" fill="#0f172a">GitHub publication</text>
<text xml:space="preserve" text-anchor="middle" x="402.2" y="-564.64" font-family="Helvetica,sans-Serif" font-size="16.00" fill="#0f172a">README landing page</text>
<text xml:space="preserve" text-anchor="middle" x="402.2" y="-548.14" font-family="Helvetica,sans-Serif" font-size="16.00" fill="#0f172a">Safe staged set</text>
<text xml:space="preserve" text-anchor="middle" x="402.2" y="-531.64" font-family="Helvetica,sans-Serif" font-size="16.00" fill="#0f172a">Secrets ignored</text>
<text xml:space="preserve" text-anchor="middle" x="402.2" y="-515.14" font-family="Helvetica,sans-Serif" font-size="16.00" fill="#0f172a">Tests pass</text>
</g>
<!-- quality&#45;&gt;github -->
<g id="edge8" class="edge">
<title>quality&#45;&gt;github</title>
<path fill="none" stroke="#64748b" stroke-width="2" d="M402.2,-634.91C402.2,-627.89 402.2,-620.58 402.2,-613.35"/>
<polygon fill="#64748b" stroke="#64748b" stroke-width="2" points="405,-613.54 402.2,-605.54 399.4,-613.54 405,-613.54"/>
</g>
<!-- aws_live -->
<g id="node10" class="node">
<title>aws_live</title>
<path fill="#ecfccb" stroke="#65a30d" d="M514.4,-475.08C514.4,-475.08 290,-475.08 290,-475.08 284,-475.08 278,-469.08 278,-463.08 278,-463.08 278,-393.06 278,-393.06 278,-387.06 284,-381.06 290,-381.06 290,-381.06 514.4,-381.06 514.4,-381.06 520.4,-381.06 526.4,-387.06 526.4,-393.06 526.4,-393.06 526.4,-463.08 526.4,-463.08 526.4,-469.08 520.4,-475.08 514.4,-475.08"/>
<text xml:space="preserve" text-anchor="middle" x="402.2" y="-454.12" font-family="Helvetica,sans-Serif" font-size="16.00" fill="#0f172a">AWS worker live</text>
<text xml:space="preserve" text-anchor="middle" x="402.2" y="-437.62" font-family="Helvetica,sans-Serif" font-size="16.00" fill="#0f172a">ECR image pushed</text>
<text xml:space="preserve" text-anchor="middle" x="402.2" y="-421.12" font-family="Helvetica,sans-Serif" font-size="16.00" fill="#0f172a">Secrets Manager runtime</text>
<text xml:space="preserve" text-anchor="middle" x="402.2" y="-404.62" font-family="Helvetica,sans-Serif" font-size="16.00" fill="#0f172a">ConfigMap filters</text>
<text xml:space="preserve" text-anchor="middle" x="402.2" y="-388.12" font-family="Helvetica,sans-Serif" font-size="16.00" fill="#0f172a">priority&#45;email namespace</text>
</g>
<!-- github&#45;&gt;aws_live -->
<g id="edge9" class="edge">
<title>github&#45;&gt;aws_live</title>
<path fill="none" stroke="#64748b" stroke-width="2" d="M402.2,-507.89C402.2,-500.87 402.2,-493.56 402.2,-486.33"/>
<polygon fill="#64748b" stroke="#64748b" stroke-width="2" points="405,-486.52 402.2,-478.52 399.4,-486.52 405,-486.52"/>
</g>
<!-- ci -->
<g id="node11" class="node">
<title>ci</title>
<path fill="#dbeafe" stroke="#2563eb" d="M514.4,-348.06C514.4,-348.06 290,-348.06 290,-348.06 284,-348.06 278,-342.06 278,-336.06 278,-336.06 278,-266.04 278,-266.04 278,-260.04 284,-254.04 290,-254.04 290,-254.04 514.4,-254.04 514.4,-254.04 520.4,-254.04 526.4,-260.04 526.4,-266.04 526.4,-266.04 526.4,-336.06 526.4,-336.06 526.4,-342.06 520.4,-348.06 514.4,-348.06"/>
<text xml:space="preserve" text-anchor="middle" x="402.2" y="-327.1" font-family="Helvetica,sans-Serif" font-size="16.00" fill="#0f172a">CI automation</text>
<text xml:space="preserve" text-anchor="middle" x="402.2" y="-310.6" font-family="Helvetica,sans-Serif" font-size="16.00" fill="#0f172a">GitHub Actions</text>
<text xml:space="preserve" text-anchor="middle" x="402.2" y="-294.1" font-family="Helvetica,sans-Serif" font-size="16.00" fill="#0f172a">Tests and syntax gates</text>
<text xml:space="preserve" text-anchor="middle" x="402.2" y="-277.6" font-family="Helvetica,sans-Serif" font-size="16.00" fill="#0f172a">Secret/path scan</text>
<text xml:space="preserve" text-anchor="middle" x="402.2" y="-261.1" font-family="Helvetica,sans-Serif" font-size="16.00" fill="#0f172a">Docker build check</text>
</g>
<!-- aws_live&#45;&gt;ci -->
<g id="edge10" class="edge">
<title>aws_live&#45;&gt;ci</title>
<path fill="none" stroke="#64748b" stroke-width="2" d="M402.2,-380.87C402.2,-373.85 402.2,-366.54 402.2,-359.31"/>
<polygon fill="#64748b" stroke="#64748b" stroke-width="2" points="405,-359.5 402.2,-351.5 399.4,-359.5 405,-359.5"/>
</g>
<!-- provider_errors -->
<g id="node12" class="node">
<title>provider_errors</title>
<path fill="#fae8ff" stroke="#a21caf" d="M514.4,-221.04C514.4,-221.04 290,-221.04 290,-221.04 284,-221.04 278,-215.04 278,-209.04 278,-209.04 278,-139.02 278,-139.02 278,-133.02 284,-127.02 290,-127.02 290,-127.02 514.4,-127.02 514.4,-127.02 520.4,-127.02 526.4,-133.02 526.4,-139.02 526.4,-139.02 526.4,-209.04 526.4,-209.04 526.4,-215.04 520.4,-221.04 514.4,-221.04"/>
<text xml:space="preserve" text-anchor="middle" x="402.2" y="-200.08" font-family="Helvetica,sans-Serif" font-size="16.00" fill="#0f172a">Provider errors</text>
<text xml:space="preserve" text-anchor="middle" x="402.2" y="-183.58" font-family="Helvetica,sans-Serif" font-size="16.00" fill="#0f172a">Slack diagnostics</text>
<text xml:space="preserve" text-anchor="middle" x="402.2" y="-167.08" font-family="Helvetica,sans-Serif" font-size="16.00" fill="#0f172a">Sanitized request details</text>
<text xml:space="preserve" text-anchor="middle" x="402.2" y="-150.58" font-family="Helvetica,sans-Serif" font-size="16.00" fill="#0f172a">Saved error state</text>
<text xml:space="preserve" text-anchor="middle" x="402.2" y="-134.08" font-family="Helvetica,sans-Serif" font-size="16.00" fill="#0f172a">Worker keeps polling</text>
</g>
<!-- ci&#45;&gt;provider_errors -->
<g id="edge11" class="edge">
<title>ci&#45;&gt;provider_errors</title>
<path fill="none" stroke="#64748b" stroke-width="2" d="M402.2,-253.85C402.2,-246.83 402.2,-239.52 402.2,-232.29"/>
<polygon fill="#64748b" stroke="#64748b" stroke-width="2" points="405,-232.48 402.2,-224.48 399.4,-232.48 405,-232.48"/>
</g>
<!-- next -->
<g id="node13" class="node">
<title>next</title>
<path fill="#fee2e2" stroke="#dc2626" d="M514.75,-94.02C514.75,-94.02 289.65,-94.02 289.65,-94.02 283.65,-94.02 277.65,-88.02 277.65,-82.02 277.65,-82.02 277.65,-12 277.65,-12 277.65,-6 283.65,0 289.65,0 289.65,0 514.75,0 514.75,0 520.75,0 526.75,-6 526.75,-12 526.75,-12 526.75,-82.02 526.75,-82.02 526.75,-88.02 520.75,-94.02 514.75,-94.02"/>
<text xml:space="preserve" text-anchor="middle" x="402.2" y="-73.06" font-family="Helvetica,sans-Serif" font-size="16.00" fill="#0f172a">Next implementation</text>
<text xml:space="preserve" text-anchor="middle" x="402.2" y="-56.56" font-family="Helvetica,sans-Serif" font-size="16.00" fill="#0f172a">Durable DynamoDB checkpoints</text>
<text xml:space="preserve" text-anchor="middle" x="402.2" y="-40.06" font-family="Helvetica,sans-Serif" font-size="16.00" fill="#0f172a">Filter matching pipeline</text>
<text xml:space="preserve" text-anchor="middle" x="402.2" y="-23.56" font-family="Helvetica,sans-Serif" font-size="16.00" fill="#0f172a">Slack summaries from matches</text>
<text xml:space="preserve" text-anchor="middle" x="402.2" y="-7.06" font-family="Helvetica,sans-Serif" font-size="16.00" fill="#0f172a">Yahoo/iCloud pollers</text>
</g>
<!-- provider_errors&#45;&gt;next -->
<g id="edge12" class="edge">
<title>provider_errors&#45;&gt;next</title>
<path fill="none" stroke="#64748b" stroke-width="2" d="M402.2,-126.83C402.2,-119.81 402.2,-112.5 402.2,-105.27"/>
<polygon fill="#64748b" stroke="#64748b" stroke-width="2" points="405,-105.46 402.2,-97.46 399.4,-105.46 405,-105.46"/>
</g>
</g>
</svg>
